<svg width="801" height="186" viewBox="0 0 801 186" fill="none" xmlns="http://www.w3.org/2000/svg">
<rect width="801" height="186" fill="#E5E5E5"/>
<rect width="132" height="76" fill="#C4C4C4"/>
<path d="M47.864 41.776L46.544 46H44.48L49.88 29.464H52.52L57.896 46H55.736L54.416 41.776H47.864ZM53.864 40.048L51.152 31.24L48.416 40.048H53.864ZM70.3186 31.144H66.6466V44.344H70.3186V46H60.8626V44.344H64.5346V31.144H60.8626V29.464H70.3186V31.144ZM85.6693 34.12C85.6693 35.304 85.3013 36.288 84.5653 37.072C83.8293 37.84 82.8533 38.376 81.6373 38.68L86.5573 46H84.0613L79.5253 38.92H77.2933V46H75.2293V29.464H79.4533C81.5013 29.464 83.0453 29.856 84.0853 30.64C85.1413 31.424 85.6693 32.584 85.6693 34.12ZM83.4613 34.12C83.4613 33.064 83.1573 32.304 82.5493 31.84C81.9413 31.376 80.9893 31.144 79.6933 31.144H77.2933V37.288H79.7173C80.9493 37.288 81.8773 37.04 82.5013 36.544C83.1413 36.032 83.4613 35.224 83.4613 34.12Z" fill="black"/>
<rect x="111" y="110" width="132" height="76" rx="20" fill="#C4C4C4"/>
<path d="M177.354 45.6464C177.158 45.4512 176.842 45.4512 176.646 45.6464L173.464 48.8284C173.269 49.0237 173.269 49.3403 173.464 49.5355C173.66 49.7308 173.976 49.7308 174.172 49.5355L177 46.7071L179.828 49.5355C180.024 49.7308 180.34 49.7308 180.536 49.5355C180.731 49.3403 180.731 49.0237 180.536 48.8284L177.354 45.6464ZM177.5 110V46H176.5V110H177.5Z" fill="black"/>
<path d="M135.704 136.468C137.487 136.468 138.378 137.747 138.378 140.304C138.378 141.471 138.135 142.404 137.65 143.104C137.165 143.804 136.46 144.154 135.536 144.154C134.733 144.154 134.08 143.874 133.576 143.314V146.828L132.4 146.968V136.622H133.408L133.506 137.658C133.777 137.275 134.099 136.981 134.472 136.776C134.855 136.571 135.265 136.468 135.704 136.468ZM135.424 137.42C135.051 137.42 134.705 137.532 134.388 137.756C134.08 137.98 133.809 138.26 133.576 138.596V142.25C133.772 142.539 134.015 142.768 134.304 142.936C134.603 143.095 134.925 143.174 135.27 143.174C135.886 143.174 136.343 142.941 136.642 142.474C136.95 141.998 137.104 141.275 137.104 140.304C137.104 139.333 136.969 138.61 136.698 138.134C136.427 137.658 136.003 137.42 135.424 137.42ZM143.679 142.18C143.679 142.843 144.085 143.174 144.897 143.174C145.279 143.174 145.69 143.09 146.129 142.922L146.437 143.776C145.97 144.028 145.387 144.154 144.687 144.154C144.024 144.154 143.492 143.972 143.091 143.608C142.699 143.244 142.503 142.749 142.503 142.124V134.592H140.235V133.654H143.679V142.18ZM154.481 142.39C154.481 142.679 154.528 142.894 154.621 143.034C154.714 143.165 154.868 143.263 155.083 143.328L154.789 144.168C154.07 144.075 153.622 143.725 153.445 143.118C153.184 143.454 152.852 143.711 152.451 143.888C152.059 144.065 151.62 144.154 151.135 144.154C150.398 144.154 149.814 143.949 149.385 143.538C148.965 143.127 148.755 142.577 148.755 141.886C148.755 141.13 149.049 140.547 149.637 140.136C150.234 139.725 151.088 139.52 152.199 139.52H153.291V138.918C153.291 138.395 153.142 138.022 152.843 137.798C152.544 137.565 152.11 137.448 151.541 137.448C150.981 137.448 150.342 137.574 149.623 137.826L149.301 136.93C150.169 136.622 150.976 136.468 151.723 136.468C152.619 136.468 153.3 136.678 153.767 137.098C154.243 137.518 154.481 138.101 154.481 138.848V142.39ZM151.429 143.272C151.793 143.272 152.138 143.179 152.465 142.992C152.801 142.805 153.076 142.549 153.291 142.222V140.332H152.227C151.443 140.332 150.878 140.463 150.533 140.724C150.188 140.985 150.015 141.368 150.015 141.872C150.015 142.805 150.486 143.272 151.429 143.272ZM160.93 143.146C161.574 143.146 162.213 142.931 162.848 142.502L163.408 143.272C163.1 143.543 162.717 143.757 162.26 143.916C161.802 144.075 161.359 144.154 160.93 144.154C159.838 144.154 158.984 143.813 158.368 143.132C157.761 142.441 157.458 141.513 157.458 140.346C157.458 139.609 157.593 138.946 157.864 138.358C158.144 137.77 158.545 137.308 159.068 136.972C159.59 136.636 160.211 136.468 160.93 136.468C161.882 136.468 162.703 136.757 163.394 137.336L162.82 138.106C162.176 137.677 161.541 137.462 160.916 137.462C160.253 137.462 159.721 137.709 159.32 138.204C158.928 138.689 158.732 139.403 158.732 140.346C158.732 141.289 158.928 141.993 159.32 142.46C159.721 142.917 160.258 143.146 160.93 143.146ZM166.916 140.724C166.944 141.536 167.154 142.147 167.546 142.558C167.947 142.969 168.451 143.174 169.058 143.174C169.422 143.174 169.753 143.123 170.052 143.02C170.36 142.908 170.687 142.74 171.032 142.516L171.578 143.3C171.233 143.571 170.836 143.781 170.388 143.93C169.949 144.079 169.506 144.154 169.058 144.154C167.994 144.154 167.163 143.809 166.566 143.118C165.978 142.418 165.684 141.485 165.684 140.318C165.684 139.581 165.815 138.923 166.076 138.344C166.337 137.756 166.711 137.299 167.196 136.972C167.681 136.636 168.246 136.468 168.89 136.468C169.823 136.468 170.556 136.795 171.088 137.448C171.629 138.092 171.9 138.974 171.9 140.094C171.9 140.309 171.891 140.519 171.872 140.724H166.916ZM168.904 137.434C168.335 137.434 167.873 137.639 167.518 138.05C167.163 138.451 166.963 139.044 166.916 139.828H170.752C170.743 139.053 170.575 138.461 170.248 138.05C169.921 137.639 169.473 137.434 168.904 137.434ZM179.231 136.468C179.651 136.468 179.991 136.617 180.253 136.916C180.523 137.205 180.659 137.737 180.659 138.512V144H179.581V138.708C179.581 138.195 179.548 137.849 179.483 137.672C179.417 137.485 179.259 137.392 179.007 137.392C178.531 137.392 178.101 137.686 177.719 138.274V144H176.627V138.708C176.627 138.195 176.594 137.849 176.529 137.672C176.463 137.485 176.305 137.392 176.053 137.392C175.577 137.392 175.147 137.686 174.765 138.274V144H173.687V136.622H174.597L174.681 137.49C174.905 137.163 175.138 136.911 175.381 136.734C175.633 136.557 175.931 136.468 176.277 136.468C176.967 136.468 177.411 136.795 177.607 137.448C177.831 137.131 178.069 136.888 178.321 136.72C178.573 136.552 178.876 136.468 179.231 136.468ZM183.705 140.724C183.733 141.536 183.943 142.147 184.335 142.558C184.737 142.969 185.241 143.174 185.847 143.174C186.211 143.174 186.543 143.123 186.841 143.02C187.149 142.908 187.476 142.74 187.821 142.516L188.367 143.3C188.022 143.571 187.625 143.781 187.177 143.93C186.739 144.079 186.295 144.154 185.847 144.154C184.783 144.154 183.953 143.809 183.355 143.118C182.767 142.418 182.473 141.485 182.473 140.318C182.473 139.581 182.604 138.923 182.865 138.344C183.127 137.756 183.5 137.299 183.985 136.972C184.471 136.636 185.035 136.468 185.679 136.468C186.613 136.468 187.345 136.795 187.877 137.448C188.419 138.092 188.689 138.974 188.689 140.094C188.689 140.309 188.68 140.519 188.661 140.724H183.705ZM185.693 137.434C185.124 137.434 184.662 137.639 184.307 138.05C183.953 138.451 183.752 139.044 183.705 139.828H187.541C187.532 139.053 187.364 138.461 187.037 138.05C186.711 137.639 186.263 137.434 185.693 137.434ZM191.162 136.622H192.17L192.268 137.658C192.557 137.285 192.921 136.995 193.36 136.79C193.808 136.575 194.256 136.468 194.704 136.468C196.085 136.468 196.776 137.196 196.776 138.652V144H195.6V139.52C195.6 138.969 195.567 138.549 195.502 138.26C195.446 137.971 195.329 137.756 195.152 137.616C194.974 137.476 194.704 137.406 194.34 137.406C193.938 137.406 193.56 137.527 193.206 137.77C192.851 138.013 192.562 138.302 192.338 138.638V144H191.162V136.622ZM205.422 143.622C205.17 143.79 204.862 143.921 204.498 144.014C204.144 144.107 203.789 144.154 203.434 144.154C202.66 144.154 202.053 143.953 201.614 143.552C201.176 143.141 200.956 142.605 200.956 141.942V137.546H199.262V136.622H200.956V134.956L202.132 134.816V136.622H204.694L204.54 137.546H202.132V141.928C202.132 142.348 202.244 142.661 202.468 142.866C202.692 143.071 203.052 143.174 203.546 143.174C204.05 143.174 204.522 143.057 204.96 142.824L205.422 143.622ZM137.692 159.39C137.692 159.679 137.739 159.894 137.832 160.034C137.925 160.165 138.079 160.263 138.294 160.328L138 161.168C137.281 161.075 136.833 160.725 136.656 160.118C136.395 160.454 136.063 160.711 135.662 160.888C135.27 161.065 134.831 161.154 134.346 161.154C133.609 161.154 133.025 160.949 132.596 160.538C132.176 160.127 131.966 159.577 131.966 158.886C131.966 158.13 132.26 157.547 132.848 157.136C133.445 156.725 134.299 156.52 135.41 156.52H136.502V155.918C136.502 155.395 136.353 155.022 136.054 154.798C135.755 154.565 135.321 154.448 134.752 154.448C134.192 154.448 133.553 154.574 132.834 154.826L132.512 153.93C133.38 153.622 134.187 153.468 134.934 153.468C135.83 153.468 136.511 153.678 136.978 154.098C137.454 154.518 137.692 155.101 137.692 155.848V159.39ZM134.64 160.272C135.004 160.272 135.349 160.179 135.676 159.992C136.012 159.805 136.287 159.549 136.502 159.222V157.332H135.438C134.654 157.332 134.089 157.463 133.744 157.724C133.399 157.985 133.226 158.368 133.226 158.872C133.226 159.805 133.697 160.272 134.64 160.272ZM140.795 153.622H141.803L141.901 154.658C142.19 154.285 142.554 153.995 142.993 153.79C143.441 153.575 143.889 153.468 144.337 153.468C145.718 153.468 146.409 154.196 146.409 155.652V161H145.233V156.52C145.233 155.969 145.2 155.549 145.135 155.26C145.079 154.971 144.962 154.756 144.785 154.616C144.607 154.476 144.337 154.406 143.973 154.406C143.571 154.406 143.193 154.527 142.839 154.77C142.484 155.013 142.195 155.302 141.971 155.638V161H140.795V153.622ZM154.789 150.654V161H153.753L153.641 160.034C153.37 160.407 153.058 160.687 152.703 160.874C152.348 161.061 151.966 161.154 151.555 161.154C150.622 161.154 149.917 160.813 149.441 160.132C148.974 159.451 148.741 158.513 148.741 157.318C148.741 156.581 148.858 155.923 149.091 155.344C149.324 154.756 149.656 154.299 150.085 153.972C150.524 153.636 151.037 153.468 151.625 153.468C152.437 153.468 153.1 153.762 153.613 154.35V150.514L154.789 150.654ZM151.933 154.42C151.317 154.42 150.841 154.663 150.505 155.148C150.178 155.633 150.015 156.357 150.015 157.318C150.015 158.27 150.164 158.993 150.463 159.488C150.771 159.973 151.214 160.216 151.793 160.216C152.493 160.216 153.1 159.824 153.613 159.04V155.372C153.408 155.064 153.16 154.831 152.871 154.672C152.582 154.504 152.269 154.42 151.933 154.42ZM170.962 153.468C171.261 153.468 171.606 153.519 171.998 153.622L171.83 156.128H170.878V154.546H170.808C169.669 154.546 168.862 155.358 168.386 156.982V160.09H169.884V161H166.048V160.09H167.21V154.532H166.048V153.622H168.092L168.316 155.372C168.615 154.737 168.969 154.261 169.38 153.944C169.8 153.627 170.327 153.468 170.962 153.468ZM177.187 153.468C178.204 153.468 178.983 153.813 179.525 154.504C180.075 155.185 180.351 156.119 180.351 157.304C180.351 158.461 180.071 159.395 179.511 160.104C178.96 160.804 178.181 161.154 177.173 161.154C176.155 161.154 175.371 160.813 174.821 160.132C174.27 159.441 173.995 158.503 173.995 157.318C173.995 156.151 174.27 155.218 174.821 154.518C175.381 153.818 176.169 153.468 177.187 153.468ZM177.187 154.434C176.543 154.434 176.062 154.672 175.745 155.148C175.427 155.624 175.269 156.347 175.269 157.318C175.269 158.289 175.423 159.012 175.731 159.488C176.048 159.955 176.529 160.188 177.173 160.188C177.817 160.188 178.293 159.955 178.601 159.488C178.918 159.012 179.077 158.284 179.077 157.304C179.077 156.333 178.918 155.615 178.601 155.148C178.293 154.672 177.821 154.434 177.187 154.434ZM183.943 158.858C183.943 159.334 184.041 159.684 184.237 159.908C184.443 160.123 184.76 160.23 185.189 160.23C185.581 160.23 185.959 160.118 186.323 159.894C186.687 159.67 186.977 159.39 187.191 159.054V153.622H188.367V161H187.359L187.261 160.006C186.972 160.37 186.613 160.655 186.183 160.86C185.763 161.056 185.334 161.154 184.895 161.154C184.195 161.154 183.663 160.967 183.299 160.594C182.945 160.221 182.767 159.684 182.767 158.984V153.622H183.943V158.858ZM197.028 160.622C196.776 160.79 196.468 160.921 196.104 161.014C195.749 161.107 195.394 161.154 195.04 161.154C194.265 161.154 193.658 160.953 193.22 160.552C192.781 160.141 192.562 159.605 192.562 158.942V154.546H190.868V153.622H192.562V151.956L193.738 151.816V153.622H196.3L196.146 154.546H193.738V158.928C193.738 159.348 193.85 159.661 194.074 159.866C194.298 160.071 194.657 160.174 195.152 160.174C195.656 160.174 196.127 160.057 196.566 159.824L197.028 160.622ZM202.356 150.178C202.618 150.178 202.828 150.257 202.986 150.416C203.145 150.565 203.224 150.761 203.224 151.004C203.224 151.247 203.145 151.447 202.986 151.606C202.828 151.755 202.618 151.83 202.356 151.83C202.104 151.83 201.899 151.755 201.74 151.606C201.591 151.447 201.516 151.247 201.516 151.004C201.516 150.761 201.591 150.565 201.74 150.416C201.899 150.257 202.104 150.178 202.356 150.178ZM203.294 160.062H205.366V161H199.85V160.062H202.118V154.56H199.92V153.622H203.294V160.062ZM207.951 153.622H208.959L209.057 154.658C209.346 154.285 209.71 153.995 210.149 153.79C210.597 153.575 211.045 153.468 211.493 153.468C212.874 153.468 213.565 154.196 213.565 155.652V161H212.389V156.52C212.389 155.969 212.356 155.549 212.291 155.26C212.235 154.971 212.118 154.756 211.941 154.616C211.763 154.476 211.493 154.406 211.129 154.406C210.727 154.406 210.349 154.527 209.995 154.77C209.64 155.013 209.351 155.302 209.127 155.638V161H207.951V153.622ZM222.701 153.958C222.421 154.051 222.118 154.112 221.791 154.14C221.465 154.159 221.049 154.168 220.545 154.168C221.404 154.56 221.833 155.181 221.833 156.03C221.833 156.777 221.586 157.383 221.091 157.85C220.597 158.307 219.92 158.536 219.061 158.536C218.623 158.536 218.254 158.485 217.955 158.382C217.843 158.466 217.75 158.573 217.675 158.704C217.61 158.835 217.577 158.965 217.577 159.096C217.577 159.516 217.904 159.726 218.557 159.726H219.887C220.373 159.726 220.811 159.815 221.203 159.992C221.605 160.16 221.917 160.398 222.141 160.706C222.375 161.014 222.491 161.355 222.491 161.728C222.491 162.447 222.183 162.997 221.567 163.38C220.961 163.772 220.097 163.968 218.977 163.968C217.839 163.968 217.036 163.791 216.569 163.436C216.103 163.081 215.869 162.517 215.869 161.742H216.933C216.933 162.05 216.989 162.293 217.101 162.47C217.223 162.657 217.428 162.792 217.717 162.876C218.016 162.969 218.436 163.016 218.977 163.016C219.771 163.016 220.354 162.913 220.727 162.708C221.11 162.503 221.301 162.199 221.301 161.798C221.301 161.462 221.147 161.201 220.839 161.014C220.531 160.837 220.135 160.748 219.649 160.748H218.333C217.727 160.748 217.265 160.617 216.947 160.356C216.63 160.085 216.471 159.749 216.471 159.348C216.471 159.115 216.541 158.886 216.681 158.662C216.821 158.429 217.022 158.228 217.283 158.06C216.863 157.845 216.551 157.575 216.345 157.248C216.149 156.912 216.051 156.506 216.051 156.03C216.051 155.535 216.173 155.097 216.415 154.714C216.667 154.322 217.013 154.019 217.451 153.804C217.899 153.58 218.413 153.468 218.991 153.468C219.831 153.468 220.471 153.421 220.909 153.328C221.348 153.235 221.829 153.076 222.351 152.852L222.701 153.958ZM218.977 154.336C218.408 154.336 217.979 154.49 217.689 154.798C217.4 155.097 217.255 155.507 217.255 156.03C217.255 156.553 217.4 156.973 217.689 157.29C217.988 157.598 218.427 157.752 219.005 157.752C219.528 157.752 219.925 157.603 220.195 157.304C220.475 156.996 220.615 156.567 220.615 156.016C220.615 154.896 220.069 154.336 218.977 154.336Z" fill="black"/>
<rect x="334" y="110" width="132" height="76" rx="20" fill="#C4C4C4"/>
<path d="M364.692 142.39C364.692 142.679 364.739 142.894 364.832 143.034C364.925 143.165 365.079 143.263 365.294 143.328L365 144.168C364.281 144.075 363.833 143.725 363.656 143.118C363.395 143.454 363.063 143.711 362.662 143.888C362.27 144.065 361.831 144.154 361.346 144.154C360.609 144.154 360.025 143.949 359.596 143.538C359.176 143.127 358.966 142.577 358.966 141.886C358.966 141.13 359.26 140.547 359.848 140.136C360.445 139.725 361.299 139.52 362.41 139.52H363.502V138.918C363.502 138.395 363.353 138.022 363.054 137.798C362.755 137.565 362.321 137.448 361.752 137.448C361.192 137.448 360.553 137.574 359.834 137.826L359.512 136.93C360.38 136.622 361.187 136.468 361.934 136.468C362.83 136.468 363.511 136.678 363.978 137.098C364.454 137.518 364.692 138.101 364.692 138.848V142.39ZM361.64 143.272C362.004 143.272 362.349 143.179 362.676 142.992C363.012 142.805 363.287 142.549 363.502 142.222V140.332H362.438C361.654 140.332 361.089 140.463 360.744 140.724C360.399 140.985 360.226 141.368 360.226 141.872C360.226 142.805 360.697 143.272 361.64 143.272ZM370.679 142.18C370.679 142.843 371.085 143.174 371.897 143.174C372.279 143.174 372.69 143.09 373.129 142.922L373.437 143.776C372.97 144.028 372.387 144.154 371.687 144.154C371.024 144.154 370.492 143.972 370.091 143.608C369.699 143.244 369.503 142.749 369.503 142.124V134.592H367.235V133.654H370.679V142.18ZM382.545 136.958C382.265 137.051 381.962 137.112 381.635 137.14C381.308 137.159 380.893 137.168 380.389 137.168C381.248 137.56 381.677 138.181 381.677 139.03C381.677 139.777 381.43 140.383 380.935 140.85C380.44 141.307 379.764 141.536 378.905 141.536C378.466 141.536 378.098 141.485 377.799 141.382C377.687 141.466 377.594 141.573 377.519 141.704C377.454 141.835 377.421 141.965 377.421 142.096C377.421 142.516 377.748 142.726 378.401 142.726H379.731C380.216 142.726 380.655 142.815 381.047 142.992C381.448 143.16 381.761 143.398 381.985 143.706C382.218 144.014 382.335 144.355 382.335 144.728C382.335 145.447 382.027 145.997 381.411 146.38C380.804 146.772 379.941 146.968 378.821 146.968C377.682 146.968 376.88 146.791 376.413 146.436C375.946 146.081 375.713 145.517 375.713 144.742H376.777C376.777 145.05 376.833 145.293 376.945 145.47C377.066 145.657 377.272 145.792 377.561 145.876C377.86 145.969 378.28 146.016 378.821 146.016C379.614 146.016 380.198 145.913 380.571 145.708C380.954 145.503 381.145 145.199 381.145 144.798C381.145 144.462 380.991 144.201 380.683 144.014C380.375 143.837 379.978 143.748 379.493 143.748H378.177C377.57 143.748 377.108 143.617 376.791 143.356C376.474 143.085 376.315 142.749 376.315 142.348C376.315 142.115 376.385 141.886 376.525 141.662C376.665 141.429 376.866 141.228 377.127 141.06C376.707 140.845 376.394 140.575 376.189 140.248C375.993 139.912 375.895 139.506 375.895 139.03C375.895 138.535 376.016 138.097 376.259 137.714C376.511 137.322 376.856 137.019 377.295 136.804C377.743 136.58 378.256 136.468 378.835 136.468C379.675 136.468 380.314 136.421 380.753 136.328C381.192 136.235 381.672 136.076 382.195 135.852L382.545 136.958ZM378.821 137.336C378.252 137.336 377.822 137.49 377.533 137.798C377.244 138.097 377.099 138.507 377.099 139.03C377.099 139.553 377.244 139.973 377.533 140.29C377.832 140.598 378.27 140.752 378.849 140.752C379.372 140.752 379.768 140.603 380.039 140.304C380.319 139.996 380.459 139.567 380.459 139.016C380.459 137.896 379.913 137.336 378.821 137.336ZM385.522 140.724C385.55 141.536 385.76 142.147 386.152 142.558C386.553 142.969 387.057 143.174 387.664 143.174C388.028 143.174 388.359 143.123 388.658 143.02C388.966 142.908 389.292 142.74 389.638 142.516L390.184 143.3C389.838 143.571 389.442 143.781 388.994 143.93C388.555 144.079 388.112 144.154 387.664 144.154C386.6 144.154 385.769 143.809 385.172 143.118C384.584 142.418 384.29 141.485 384.29 140.318C384.29 139.581 384.42 138.923 384.682 138.344C384.943 137.756 385.316 137.299 385.802 136.972C386.287 136.636 386.852 136.468 387.496 136.468C388.429 136.468 389.162 136.795 389.694 137.448C390.235 138.092 390.506 138.974 390.506 140.094C390.506 140.309 390.496 140.519 390.478 140.724H385.522ZM387.51 137.434C386.94 137.434 386.478 137.639 386.124 138.05C385.769 138.451 385.568 139.044 385.522 139.828H389.358C389.348 139.053 389.18 138.461 388.854 138.05C388.527 137.639 388.079 137.434 387.51 137.434ZM394.154 137.588C394.723 136.841 395.428 136.468 396.268 136.468C397.211 136.468 397.906 136.804 398.354 137.476C398.802 138.148 399.026 139.091 399.026 140.304C399.026 141.461 398.769 142.395 398.256 143.104C397.743 143.804 397.024 144.154 396.1 144.154C395.251 144.154 394.583 143.846 394.098 143.23L394.014 144H392.978V133.654L394.154 133.514V137.588ZM395.834 143.202C396.45 143.202 396.921 142.959 397.248 142.474C397.584 141.989 397.752 141.265 397.752 140.304C397.752 139.352 397.603 138.633 397.304 138.148C397.015 137.663 396.581 137.42 396.002 137.42C395.629 137.42 395.283 137.532 394.966 137.756C394.658 137.98 394.387 138.26 394.154 138.596V142.25C394.35 142.549 394.593 142.782 394.882 142.95C395.171 143.118 395.489 143.202 395.834 143.202ZM406.357 136.468C406.655 136.468 407.001 136.519 407.393 136.622L407.225 139.128H406.273V137.546H406.203C405.064 137.546 404.257 138.358 403.781 139.982V143.09H405.279V144H401.443V143.09H402.605V137.532H401.443V136.622H403.487L403.711 138.372C404.009 137.737 404.364 137.261 404.775 136.944C405.195 136.627 405.722 136.468 406.357 136.468ZM415.059 142.39C415.059 142.679 415.106 142.894 415.199 143.034C415.293 143.165 415.447 143.263 415.661 143.328L415.367 144.168C414.649 144.075 414.201 143.725 414.023 143.118C413.762 143.454 413.431 143.711 413.029 143.888C412.637 144.065 412.199 144.154 411.713 144.154C410.976 144.154 410.393 143.949 409.963 143.538C409.543 143.127 409.333 142.577 409.333 141.886C409.333 141.13 409.627 140.547 410.215 140.136C410.813 139.725 411.667 139.52 412.777 139.52H413.869V138.918C413.869 138.395 413.72 138.022 413.421 137.798C413.123 137.565 412.689 137.448 412.119 137.448C411.559 137.448 410.92 137.574 410.201 137.826L409.879 136.93C410.747 136.622 411.555 136.468 412.301 136.468C413.197 136.468 413.879 136.678 414.345 137.098C414.821 137.518 415.059 138.101 415.059 138.848V142.39ZM412.007 143.272C412.371 143.272 412.717 143.179 413.043 142.992C413.379 142.805 413.655 142.549 413.869 142.222V140.332H412.805C412.021 140.332 411.457 140.463 411.111 140.724C410.766 140.985 410.593 141.368 410.593 141.872C410.593 142.805 411.065 143.272 412.007 143.272ZM420.962 133.178C421.223 133.178 421.433 133.257 421.592 133.416C421.75 133.565 421.83 133.761 421.83 134.004C421.83 134.247 421.75 134.447 421.592 134.606C421.433 134.755 421.223 134.83 420.962 134.83C420.71 134.83 420.504 134.755 420.346 134.606C420.196 134.447 420.122 134.247 420.122 134.004C420.122 133.761 420.196 133.565 420.346 133.416C420.504 133.257 420.71 133.178 420.962 133.178ZM421.9 143.062H423.972V144H418.456V143.062H420.724V137.56H418.526V136.622H421.9V143.062ZM429.902 143.146C430.546 143.146 431.186 142.931 431.82 142.502L432.38 143.272C432.072 143.543 431.69 143.757 431.232 143.916C430.775 144.075 430.332 144.154 429.902 144.154C428.81 144.154 427.956 143.813 427.34 143.132C426.734 142.441 426.43 141.513 426.43 140.346C426.43 139.609 426.566 138.946 426.836 138.358C427.116 137.77 427.518 137.308 428.04 136.972C428.563 136.636 429.184 136.468 429.902 136.468C430.854 136.468 431.676 136.757 432.366 137.336L431.792 138.106C431.148 137.677 430.514 137.462 429.888 137.462C429.226 137.462 428.694 137.709 428.292 138.204C427.9 138.689 427.704 139.403 427.704 140.346C427.704 141.289 427.9 141.993 428.292 142.46C428.694 142.917 429.23 143.146 429.902 143.146ZM362.284 159.18C362.284 159.843 362.69 160.174 363.502 160.174C363.885 160.174 364.295 160.09 364.734 159.922L365.042 160.776C364.575 161.028 363.992 161.154 363.292 161.154C362.629 161.154 362.097 160.972 361.696 160.608C361.304 160.244 361.108 159.749 361.108 159.124V151.592H358.84V150.654H362.284V159.18ZM370.595 150.178C370.856 150.178 371.066 150.257 371.225 150.416C371.383 150.565 371.463 150.761 371.463 151.004C371.463 151.247 371.383 151.447 371.225 151.606C371.066 151.755 370.856 151.83 370.595 151.83C370.343 151.83 370.137 151.755 369.979 151.606C369.829 151.447 369.755 151.247 369.755 151.004C369.755 150.761 369.829 150.565 369.979 150.416C370.137 150.257 370.343 150.178 370.595 150.178ZM371.533 160.062H373.605V161H368.089V160.062H370.357V154.56H368.159V153.622H371.533V160.062ZM376.189 153.622H377.197L377.295 154.658C377.584 154.285 377.948 153.995 378.387 153.79C378.835 153.575 379.283 153.468 379.731 153.468C381.112 153.468 381.803 154.196 381.803 155.652V161H380.627V156.52C380.627 155.969 380.594 155.549 380.529 155.26C380.473 154.971 380.356 154.756 380.179 154.616C380.002 154.476 379.731 154.406 379.367 154.406C378.966 154.406 378.588 154.527 378.233 154.77C377.878 155.013 377.589 155.302 377.365 155.638V161H376.189V153.622ZM385.844 161H384.668V150.654L385.844 150.514V161ZM387.454 156.954L391.15 161H389.596L385.97 156.968L389.246 153.622H390.758L387.454 156.954ZM395.778 150.178C396.039 150.178 396.249 150.257 396.408 150.416C396.567 150.565 396.646 150.761 396.646 151.004C396.646 151.247 396.567 151.447 396.408 151.606C396.249 151.755 396.039 151.83 395.778 151.83C395.526 151.83 395.321 151.755 395.162 151.606C395.013 151.447 394.938 151.247 394.938 151.004C394.938 150.761 395.013 150.565 395.162 150.416C395.321 150.257 395.526 150.178 395.778 150.178ZM396.716 160.062H398.788V161H393.272V160.062H395.54V154.56H393.342V153.622H396.716V160.062ZM401.373 153.622H402.381L402.479 154.658C402.768 154.285 403.132 153.995 403.571 153.79C404.019 153.575 404.467 153.468 404.915 153.468C406.296 153.468 406.987 154.196 406.987 155.652V161H405.811V156.52C405.811 155.969 405.778 155.549 405.713 155.26C405.657 154.971 405.54 154.756 405.363 154.616C405.185 154.476 404.915 154.406 404.551 154.406C404.149 154.406 403.771 154.527 403.417 154.77C403.062 155.013 402.773 155.302 402.549 155.638V161H401.373V153.622ZM416.123 153.958C415.843 154.051 415.54 154.112 415.213 154.14C414.887 154.159 414.471 154.168 413.967 154.168C414.826 154.56 415.255 155.181 415.255 156.03C415.255 156.777 415.008 157.383 414.513 157.85C414.019 158.307 413.342 158.536 412.483 158.536C412.045 158.536 411.676 158.485 411.377 158.382C411.265 158.466 411.172 158.573 411.097 158.704C411.032 158.835 410.999 158.965 410.999 159.096C410.999 159.516 411.326 159.726 411.979 159.726H413.309C413.795 159.726 414.233 159.815 414.625 159.992C415.027 160.16 415.339 160.398 415.563 160.706C415.797 161.014 415.913 161.355 415.913 161.728C415.913 162.447 415.605 162.997 414.989 163.38C414.383 163.772 413.519 163.968 412.399 163.968C411.261 163.968 410.458 163.791 409.991 163.436C409.525 163.081 409.291 162.517 409.291 161.742H410.355C410.355 162.05 410.411 162.293 410.523 162.47C410.645 162.657 410.85 162.792 411.139 162.876C411.438 162.969 411.858 163.016 412.399 163.016C413.193 163.016 413.776 162.913 414.149 162.708C414.532 162.503 414.723 162.199 414.723 161.798C414.723 161.462 414.569 161.201 414.261 161.014C413.953 160.837 413.557 160.748 413.071 160.748H411.755C411.149 160.748 410.687 160.617 410.369 160.356C410.052 160.085 409.893 159.749 409.893 159.348C409.893 159.115 409.963 158.886 410.103 158.662C410.243 158.429 410.444 158.228 410.705 158.06C410.285 157.845 409.973 157.575 409.767 157.248C409.571 156.912 409.473 156.506 409.473 156.03C409.473 155.535 409.595 155.097 409.837 154.714C410.089 154.322 410.435 154.019 410.873 153.804C411.321 153.58 411.835 153.468 412.413 153.468C413.253 153.468 413.893 153.421 414.331 153.328C414.77 153.235 415.251 153.076 415.773 152.852L416.123 153.958ZM412.399 154.336C411.83 154.336 411.401 154.49 411.111 154.798C410.822 155.097 410.677 155.507 410.677 156.03C410.677 156.553 410.822 156.973 411.111 157.29C411.41 157.598 411.849 157.752 412.427 157.752C412.95 157.752 413.347 157.603 413.617 157.304C413.897 156.996 414.037 156.567 414.037 156.016C414.037 154.896 413.491 154.336 412.399 154.336Z" fill="black"/>
<rect x="558" y="110" width="132" height="76" rx="20" fill="#C4C4C4"/>
<path d="M586.704 136.468C588.487 136.468 589.378 137.747 589.378 140.304C589.378 141.471 589.135 142.404 588.65 143.104C588.165 143.804 587.46 144.154 586.536 144.154C585.733 144.154 585.08 143.874 584.576 143.314V146.828L583.4 146.968V136.622H584.408L584.506 137.658C584.777 137.275 585.099 136.981 585.472 136.776C585.855 136.571 586.265 136.468 586.704 136.468ZM586.424 137.42C586.051 137.42 585.705 137.532 585.388 137.756C585.08 137.98 584.809 138.26 584.576 138.596V142.25C584.772 142.539 585.015 142.768 585.304 142.936C585.603 143.095 585.925 143.174 586.27 143.174C586.886 143.174 587.343 142.941 587.642 142.474C587.95 141.998 588.104 141.275 588.104 140.304C588.104 139.333 587.969 138.61 587.698 138.134C587.427 137.658 587.003 137.42 586.424 137.42ZM596.779 136.468C597.077 136.468 597.423 136.519 597.815 136.622L597.647 139.128H596.695V137.546H596.625C595.486 137.546 594.679 138.358 594.203 139.982V143.09H595.701V144H591.865V143.09H593.027V137.532H591.865V136.622H593.909L594.133 138.372C594.431 137.737 594.786 137.261 595.197 136.944C595.617 136.627 596.144 136.468 596.779 136.468ZM603.003 136.468C604.02 136.468 604.8 136.813 605.341 137.504C605.892 138.185 606.167 139.119 606.167 140.304C606.167 141.461 605.887 142.395 605.327 143.104C604.776 143.804 603.997 144.154 602.989 144.154C601.972 144.154 601.188 143.813 600.637 143.132C600.086 142.441 599.811 141.503 599.811 140.318C599.811 139.151 600.086 138.218 600.637 137.518C601.197 136.818 601.986 136.468 603.003 136.468ZM603.003 137.434C602.359 137.434 601.878 137.672 601.561 138.148C601.244 138.624 601.085 139.347 601.085 140.318C601.085 141.289 601.239 142.012 601.547 142.488C601.864 142.955 602.345 143.188 602.989 143.188C603.633 143.188 604.109 142.955 604.417 142.488C604.734 142.012 604.893 141.284 604.893 140.304C604.893 139.333 604.734 138.615 604.417 138.148C604.109 137.672 603.638 137.434 603.003 137.434ZM607.968 144L610.684 140.108L608.29 136.622H609.69L611.398 139.366L613.12 136.622H614.478L612.084 140.052L614.8 144H613.372L611.342 140.836L609.312 144H607.968ZM619.778 133.178C620.039 133.178 620.249 133.257 620.408 133.416C620.567 133.565 620.646 133.761 620.646 134.004C620.646 134.247 620.567 134.447 620.408 134.606C620.249 134.755 620.039 134.83 619.778 134.83C619.526 134.83 619.321 134.755 619.162 134.606C619.013 134.447 618.938 134.247 618.938 134.004C618.938 133.761 619.013 133.565 619.162 133.416C619.321 133.257 619.526 133.178 619.778 133.178ZM620.716 143.062H622.788V144H617.272V143.062H619.54V137.56H617.342V136.622H620.716V143.062ZM630.231 136.468C630.651 136.468 630.991 136.617 631.253 136.916C631.523 137.205 631.659 137.737 631.659 138.512V144H630.581V138.708C630.581 138.195 630.548 137.849 630.483 137.672C630.417 137.485 630.259 137.392 630.007 137.392C629.531 137.392 629.101 137.686 628.719 138.274V144H627.627V138.708C627.627 138.195 627.594 137.849 627.529 137.672C627.463 137.485 627.305 137.392 627.053 137.392C626.577 137.392 626.147 137.686 625.765 138.274V144H624.687V136.622H625.597L625.681 137.49C625.905 137.163 626.138 136.911 626.381 136.734C626.633 136.557 626.931 136.468 627.277 136.468C627.967 136.468 628.411 136.795 628.607 137.448C628.831 137.131 629.069 136.888 629.321 136.72C629.573 136.552 629.876 136.468 630.231 136.468ZM636.567 133.178C636.829 133.178 637.039 133.257 637.197 133.416C637.356 133.565 637.435 133.761 637.435 134.004C637.435 134.247 637.356 134.447 637.197 134.606C637.039 134.755 636.829 134.83 636.567 134.83C636.315 134.83 636.11 134.755 635.951 134.606C635.802 134.447 635.727 134.247 635.727 134.004C635.727 133.761 635.802 133.565 635.951 133.416C636.11 133.257 636.315 133.178 636.567 133.178ZM637.505 143.062H639.577V144H634.061V143.062H636.329V137.56H634.131V136.622H637.505V143.062ZM648.028 143.622C647.776 143.79 647.468 143.921 647.104 144.014C646.749 144.107 646.394 144.154 646.04 144.154C645.265 144.154 644.658 143.953 644.22 143.552C643.781 143.141 643.562 142.605 643.562 141.942V137.546H641.868V136.622H643.562V134.956L644.738 134.816V136.622H647.3L647.146 137.546H644.738V141.928C644.738 142.348 644.85 142.661 645.074 142.866C645.298 143.071 645.657 143.174 646.152 143.174C646.656 143.174 647.127 143.057 647.566 142.824L648.028 143.622ZM654.112 144.042C653.823 144.891 653.426 145.568 652.922 146.072C652.418 146.576 651.714 146.875 650.808 146.968L650.64 146.03C651.135 145.946 651.527 145.815 651.816 145.638C652.115 145.47 652.348 145.255 652.516 144.994C652.684 144.742 652.838 144.411 652.978 144H652.586L650.024 136.622H651.27L653.384 143.104L655.47 136.622H656.688L654.112 144.042ZM589.266 160.622C589.014 160.79 588.706 160.921 588.342 161.014C587.987 161.107 587.633 161.154 587.278 161.154C586.503 161.154 585.897 160.953 585.458 160.552C585.019 160.141 584.8 159.605 584.8 158.942V154.546H583.106V153.622H584.8V151.956L585.976 151.816V153.622H588.538L588.384 154.546H585.976V158.928C585.976 159.348 586.088 159.661 586.312 159.866C586.536 160.071 586.895 160.174 587.39 160.174C587.894 160.174 588.365 160.057 588.804 159.824L589.266 160.622ZM592.733 157.724C592.761 158.536 592.971 159.147 593.363 159.558C593.764 159.969 594.268 160.174 594.875 160.174C595.239 160.174 595.57 160.123 595.869 160.02C596.177 159.908 596.503 159.74 596.849 159.516L597.395 160.3C597.049 160.571 596.653 160.781 596.205 160.93C595.766 161.079 595.323 161.154 594.875 161.154C593.811 161.154 592.98 160.809 592.383 160.118C591.795 159.418 591.501 158.485 591.501 157.318C591.501 156.581 591.631 155.923 591.893 155.344C592.154 154.756 592.527 154.299 593.013 153.972C593.498 153.636 594.063 153.468 594.707 153.468C595.64 153.468 596.373 153.795 596.905 154.448C597.446 155.092 597.717 155.974 597.717 157.094C597.717 157.309 597.707 157.519 597.689 157.724H592.733ZM594.721 154.434C594.151 154.434 593.689 154.639 593.335 155.05C592.98 155.451 592.779 156.044 592.733 156.828H596.569C596.559 156.053 596.391 155.461 596.065 155.05C595.738 154.639 595.29 154.434 594.721 154.434ZM602.709 160.188C603.269 160.188 603.712 160.081 604.039 159.866C604.366 159.651 604.529 159.367 604.529 159.012C604.529 158.769 604.487 158.573 604.403 158.424C604.319 158.265 604.151 158.125 603.899 158.004C603.647 157.873 603.264 157.743 602.751 157.612C601.892 157.397 601.258 157.141 600.847 156.842C600.436 156.534 600.231 156.081 600.231 155.484C600.231 154.868 600.488 154.378 601.001 154.014C601.514 153.65 602.191 153.468 603.031 153.468C604.058 153.468 604.954 153.739 605.719 154.28L605.187 155.092C604.879 154.877 604.557 154.714 604.221 154.602C603.885 154.481 603.498 154.42 603.059 154.42C601.995 154.42 601.463 154.742 601.463 155.386C601.463 155.61 601.519 155.792 601.631 155.932C601.752 156.072 601.944 156.198 602.205 156.31C602.476 156.413 602.877 156.539 603.409 156.688C604.212 156.903 604.809 157.178 605.201 157.514C605.602 157.841 605.803 158.321 605.803 158.956C605.803 159.693 605.504 160.244 604.907 160.608C604.31 160.972 603.577 161.154 602.709 161.154C601.552 161.154 600.59 160.823 599.825 160.16L600.483 159.39C600.782 159.633 601.122 159.829 601.505 159.978C601.888 160.118 602.289 160.188 602.709 160.188ZM614.45 160.622C614.198 160.79 613.89 160.921 613.526 161.014C613.171 161.107 612.816 161.154 612.462 161.154C611.687 161.154 611.08 160.953 610.642 160.552C610.203 160.141 609.984 159.605 609.984 158.942V154.546H608.29V153.622H609.984V151.956L611.16 151.816V153.622H613.722L613.568 154.546H611.16V158.928C611.16 159.348 611.272 159.661 611.496 159.866C611.72 160.071 612.079 160.174 612.574 160.174C613.078 160.174 613.549 160.057 613.988 159.824L614.45 160.622ZM619.778 150.178C620.039 150.178 620.249 150.257 620.408 150.416C620.567 150.565 620.646 150.761 620.646 151.004C620.646 151.247 620.567 151.447 620.408 151.606C620.249 151.755 620.039 151.83 619.778 151.83C619.526 151.83 619.321 151.755 619.162 151.606C619.013 151.447 618.938 151.247 618.938 151.004C618.938 150.761 619.013 150.565 619.162 150.416C619.321 150.257 619.526 150.178 619.778 150.178ZM620.716 160.062H622.788V161H617.272V160.062H619.54V154.56H617.342V153.622H620.716V160.062ZM625.373 153.622H626.381L626.479 154.658C626.768 154.285 627.132 153.995 627.571 153.79C628.019 153.575 628.467 153.468 628.915 153.468C630.296 153.468 630.987 154.196 630.987 155.652V161H629.811V156.52C629.811 155.969 629.778 155.549 629.713 155.26C629.657 154.971 629.54 154.756 629.363 154.616C629.185 154.476 628.915 154.406 628.551 154.406C628.149 154.406 627.771 154.527 627.417 154.77C627.062 155.013 626.773 155.302 626.549 155.638V161H625.373V153.622ZM640.123 153.958C639.843 154.051 639.54 154.112 639.213 154.14C638.887 154.159 638.471 154.168 637.967 154.168C638.826 154.56 639.255 155.181 639.255 156.03C639.255 156.777 639.008 157.383 638.513 157.85C638.019 158.307 637.342 158.536 636.483 158.536C636.045 158.536 635.676 158.485 635.377 158.382C635.265 158.466 635.172 158.573 635.097 158.704C635.032 158.835 634.999 158.965 634.999 159.096C634.999 159.516 635.326 159.726 635.979 159.726H637.309C637.795 159.726 638.233 159.815 638.625 159.992C639.027 160.16 639.339 160.398 639.563 160.706C639.797 161.014 639.913 161.355 639.913 161.728C639.913 162.447 639.605 162.997 638.989 163.38C638.383 163.772 637.519 163.968 636.399 163.968C635.261 163.968 634.458 163.791 633.991 163.436C633.525 163.081 633.291 162.517 633.291 161.742H634.355C634.355 162.05 634.411 162.293 634.523 162.47C634.645 162.657 634.85 162.792 635.139 162.876C635.438 162.969 635.858 163.016 636.399 163.016C637.193 163.016 637.776 162.913 638.149 162.708C638.532 162.503 638.723 162.199 638.723 161.798C638.723 161.462 638.569 161.201 638.261 161.014C637.953 160.837 637.557 160.748 637.071 160.748H635.755C635.149 160.748 634.687 160.617 634.369 160.356C634.052 160.085 633.893 159.749 633.893 159.348C633.893 159.115 633.963 158.886 634.103 158.662C634.243 158.429 634.444 158.228 634.705 158.06C634.285 157.845 633.973 157.575 633.767 157.248C633.571 156.912 633.473 156.506 633.473 156.03C633.473 155.535 633.595 155.097 633.837 154.714C634.089 154.322 634.435 154.019 634.873 153.804C635.321 153.58 635.835 153.468 636.413 153.468C637.253 153.468 637.893 153.421 638.331 153.328C638.77 153.235 639.251 153.076 639.773 152.852L640.123 153.958ZM636.399 154.336C635.83 154.336 635.401 154.49 635.111 154.798C634.822 155.097 634.677 155.507 634.677 156.03C634.677 156.553 634.822 156.973 635.111 157.29C635.41 157.598 635.849 157.752 636.427 157.752C636.95 157.752 637.347 157.603 637.617 157.304C637.897 156.996 638.037 156.567 638.037 156.016C638.037 154.896 637.491 154.336 636.399 154.336Z" fill="black"/>
<rect x="223" width="132" height="76" fill="#8CD5EC"/>
<path d="M270.864 41.776L269.544 46H267.48L272.88 29.464H275.52L280.896 46H278.736L277.416 41.776H270.864ZM276.864 40.048L274.152 31.24L271.416 40.048H276.864ZM294.759 34.552C294.759 36.392 294.191 37.736 293.055 38.584C291.919 39.432 290.359 39.856 288.375 39.856H286.239V46H284.175V29.464H288.375C290.407 29.464 291.975 29.888 293.079 30.736C294.199 31.584 294.759 32.856 294.759 34.552ZM292.527 34.576C292.527 33.376 292.175 32.504 291.471 31.96C290.783 31.4 289.839 31.12 288.639 31.12H286.239V38.2H288.567C289.815 38.2 290.783 37.928 291.471 37.384C292.175 36.84 292.527 35.904 292.527 34.576ZM308.669 34.12C308.669 35.304 308.301 36.288 307.565 37.072C306.829 37.84 305.853 38.376 304.637 38.68L309.557 46H307.061L302.525 38.92H300.293V46H298.229V29.464H302.453C304.501 29.464 306.045 29.856 307.085 30.64C308.141 31.424 308.669 32.584 308.669 34.12ZM306.461 34.12C306.461 33.064 306.157 32.304 305.549 31.84C304.941 31.376 303.989 31.144 302.693 31.144H300.293V37.288H302.717C303.949 37.288 304.877 37.04 305.501 36.544C306.141 36.032 306.461 35.224 306.461 34.12Z" fill="black"/>
<rect x="446" width="132" height="76" fill="#C4C4C4"/>
<path d="M502.888 34.12C502.888 35.304 502.52 36.288 501.784 37.072C501.048 37.84 500.072 38.376 498.856 38.68L503.776 46H501.28L496.744 38.92H494.512V46H492.448V29.464H496.672C498.72 29.464 500.264 29.856 501.304 30.64C502.36 31.424 502.888 32.584 502.888 34.12ZM500.68 34.12C500.68 33.064 500.376 32.304 499.768 31.84C499.16 31.376 498.208 31.144 496.912 31.144H494.512V37.288H496.936C498.168 37.288 499.096 37.04 499.72 36.544C500.36 36.032 500.68 35.224 500.68 34.12ZM517.759 34.552C517.759 36.392 517.191 37.736 516.055 38.584C514.919 39.432 513.359 39.856 511.375 39.856H509.239V46H507.175V29.464H511.375C513.407 29.464 514.975 29.888 516.079 30.736C517.199 31.584 517.759 32.856 517.759 34.552ZM515.527 34.576C515.527 33.376 515.175 32.504 514.471 31.96C513.783 31.4 512.839 31.12 511.639 31.12H509.239V38.2H511.567C512.815 38.2 513.783 37.928 514.471 37.384C515.175 36.84 515.527 35.904 515.527 34.576ZM526.989 46H524.901V31.264H519.741V29.464H532.197L531.981 31.264H526.989V46Z" fill="black"/>
<rect x="669" width="132" height="76" fill="#C4C4C4"/>
<path d="M718.4 36.976H724.88V38.656H718.4V46H716.312V29.464H726.056L725.816 31.192H718.4V36.976ZM740.279 34.12C740.279 35.304 739.911 36.288 739.175 37.072C738.439 37.84 737.463 38.376 736.247 38.68L741.167 46H738.671L734.135 38.92H731.903V46H729.839V29.464H734.063C736.111 29.464 737.655 29.856 738.695 30.64C739.751 31.424 740.279 32.584 740.279 34.12ZM738.071 34.12C738.071 33.064 737.767 32.304 737.159 31.84C736.551 31.376 735.599 31.144 734.303 31.144H731.903V37.288H734.327C735.559 37.288 736.487 37.04 737.111 36.544C737.751 36.032 738.071 35.224 738.071 34.12ZM753.709 31.144H750.037V44.344H753.709V46H744.253V44.344H747.925V31.144H744.253V29.464H753.709V31.144Z" fill="black"/>
<path d="M224.061 39.0607C224.646 38.4749 224.646 37.5251 224.061 36.9393L214.515 27.3934C213.929 26.8076 212.979 26.8076 212.393 27.3934C211.808 27.9792 211.808 28.9289 212.393 29.5147L220.879 38L212.393 46.4853C211.808 47.0711 211.808 48.0208 212.393 48.6066C212.979 49.1924 213.929 49.1924 214.515 48.6066L224.061 39.0607ZM132 39.5H223V36.5H132V39.5Z" fill="black"/>
<path d="M447.061 39.0607C447.646 38.4749 447.646 37.5251 447.061 36.9393L437.515 27.3934C436.929 26.8076 435.979 26.8076 435.393 27.3934C434.808 27.9792 434.808 28.9289 435.393 29.5147L443.879 38L435.393 46.4853C434.808 47.0711 434.808 48.0208 435.393 48.6066C435.979 49.1924 436.929 49.1924 437.515 48.6066L447.061 39.0607ZM355 39.5H446V36.5H355V39.5Z" fill="black"/>
<path d="M670.061 39.0607C670.646 38.4749 670.646 37.5251 670.061 36.9393L660.515 27.3934C659.929 26.8076 658.979 26.8076 658.393 27.3934C657.808 27.9792 657.808 28.9289 658.393 29.5147L666.879 38L658.393 46.4853C657.808 47.0711 657.808 48.0208 658.393 48.6066C658.979 49.1924 659.929 49.1924 660.515 48.6066L670.061 39.0607ZM578 39.5H669V36.5H578V39.5Z" fill="black"/>
<path d="M400.354 45.6464C400.158 45.4512 399.842 45.4512 399.646 45.6464L396.464 48.8284C396.269 49.0237 396.269 49.3403 396.464 49.5355C396.66 49.7308 396.976 49.7308 397.172 49.5355L400 46.7071L402.828 49.5355C403.024 49.7308 403.34 49.7308 403.536 49.5355C403.731 49.3403 403.731 49.0237 403.536 48.8284L400.354 45.6464ZM400.5 110V46H399.5V110H400.5Z" fill="black"/>
<path d="M624.354 45.6464C624.158 45.4512 623.842 45.4512 623.646 45.6464L620.464 48.8284C620.269 49.0237 620.269 49.3403 620.464 49.5355C620.66 49.7308 620.976 49.7308 621.172 49.5355L624 46.7071L626.828 49.5355C627.024 49.7308 627.34 49.7308 627.536 49.5355C627.731 49.3403 627.731 49.0237 627.536 48.8284L624.354 45.6464ZM624.5 110V46H623.5V110H624.5Z" fill="black"/>
</svg>
