<?xml version="1.0" encoding="UTF-8"?>
<svg width="398px" height="66px" viewBox="0 0 398 66" version="1.1" xmlns="http://www.w3.org/2000/svg" xmlns:xlink="http://www.w3.org/1999/xlink">
  <!-- Generator: Sketch 46.2 (44496) - http://www.bohemiancoding.com/sketch -->
  <title>5</title>
  <desc>Created with Sketch.</desc>
  <defs></defs>
  <g id="Page-1" stroke="none" stroke-width="1" fill="none" fill-rule="evenodd">
    <g id="1-copy-2" transform="translate(-447.000000, -468.000000)" fill-rule="nonzero" fill="#FFFFFF">
      <g id="5" transform="translate(447.000000, 468.000000)">
        <polygon id="Shape" points="29.92275 65.703 58.872 51.22425 58.872 15.60075 29.92275 30.07125"></polygon>
        <polygon id="Shape" points="0 14.4705 27.8355 0 57.89025 14.4705 28.94925 28.94925"></polygon>
        <g id="Group" transform="translate(87.000000, 7.000000)">
          <path d="M0.614,2.9 L23.9285,2.9 C32.36825,2.9 36.65,8.279 36.65,14.19425 C36.65,19.7795 33.19325,23.50025 29.0105,24.35825 C33.7295,25.08425 37.51625,29.67125 37.51625,35.24825 C37.51625,41.84825 33.0695,47.2025 24.62975,47.2025 L0.614,47.2025 L0.614,2.9 Z M21.87425,20.7035 C25.067,20.7035 27.05525,18.641 27.05525,15.7535 C27.05525,13.031 25.067,10.9025 21.87425,10.9025 L10.04375,10.9025 L10.04375,20.7035 L21.87425,20.7035 Z M22.20425,39.167 C25.793,39.167 27.91325,37.1045 27.91325,33.92 C27.91325,31.1315 25.91675,28.739 22.20425,28.739 L10.04375,28.739 L10.04375,39.2 L22.20425,39.167 Z" id="Shape"></path>
          <path d="M44.31425,15.1265 L52.754,15.1265 L52.754,19.5155 C55.2575599,16.4035237 58.992283,14.5361621 62.984,14.4005 L62.984,22.6505 C62.2206153,22.4769341 61.440365,22.3883951 60.6575,22.3865 C57.869,22.3865 54.14825,23.97875 52.754,26.04125 L52.754,47.21075 L44.31425,47.21075 L44.31425,15.1265 Z" id="Shape"></path>
          <path d="M67.23275,5.96075 C67.23275,3.1722643 69.4932643,0.91175 72.28175,0.91175 C75.0702357,0.91175 77.33075,3.1722643 77.33075,5.96075 C77.33075,8.7492357 75.0702357,11.00975 72.28175,11.00975 L72.28175,11.00975 C69.5026088,10.9873184 67.2551816,8.7398912 67.23275,5.96075 L67.23275,5.96075 Z M68.05775,15.1265 L76.4975,15.1265 L76.4975,47.21075 L68.09075,47.21075 L68.05775,15.1265 Z" id="Shape"></path>
          <path d="M99.713,14.32625 C106.313,14.32625 110.273,17.18075 112.4015,20.10125 L106.8905,25.28225 C105.388063,23.0299037 102.822687,21.7206556 100.11725,21.8255 C95.00225,21.8255 91.4135,25.54625 91.4135,31.1315 C91.4135,36.71675 95.00225,40.49525 100.11725,40.49525 C102.809115,40.5399964 105.347359,39.2445952 106.8905,37.0385 L112.4015,42.1535 C110.273,45.14 106.28825,48.00275 99.713,48.00275 C89.813,48.00275 82.70975,41.0315 82.70975,31.1315 C82.70975,21.2315 89.813,14.32625 99.713,14.32625 Z" id="Shape"></path>
          <polygon id="Shape" points="130.06475 34.85225 126.212 38.97725 126.212 47.22725 117.77225 47.22725 117.77225 2.9 126.212 2.9 126.212 29.40725 138.3725 15.1265 148.7345 15.1265 136.03775 29.67125 149.12225 47.21075 138.56225 47.21075"></polygon>
          <path d="M153.173,2.9 L161.61275,2.9 L161.61275,19.24325 C163.949823,16.1271527 167.617628,14.29325 171.51275,14.29325 C179.68025,14.29325 185.7275,20.6705 185.7275,31.1645 C185.7275,41.8895 179.61425,47.96975 171.51275,47.96975 C167.620679,47.9568729 163.958294,46.1256802 161.61275,43.01975 L161.61275,47.14475 L153.173,47.14475 L153.173,2.9 Z M168.848,40.5035 C173.798,40.5035 177.0155,36.78275 177.0155,31.1975 C177.0155,25.61225 173.7155,21.83375 168.848,21.83375 C165.990201,21.8957057 163.319417,23.2676003 161.6045,25.5545 L161.6045,36.91475 C163.354,39.1424507 166.015755,40.461202 168.848,40.5035 L168.848,40.5035 Z" id="Shape"></path>
          <polygon id="Shape" points="191.9645 2.9 200.40425 2.9 200.40425 47.21075 191.9645 47.21075"></polygon>
          <path d="M206.6,31.1315 C206.6,22.0565 212.97725,14.32625 223.53725,14.32625 C234.09725,14.32625 240.5405,22.03175 240.5405,31.1315 C240.5405,40.23125 234.16325,48.00275 223.53725,48.00275 C212.91125,48.00275 206.6,40.3055 206.6,31.1315 Z M231.779,31.1315 C231.779,26.1815 228.7925,21.8255 223.529,21.8255 C218.2655,21.8255 215.3615,26.14025 215.3615,31.1315 C215.3615,36.12275 218.282,40.49525 223.529,40.49525 C228.776,40.49525 231.779,36.1805 231.779,31.1315 Z" id="Shape"></path>
          <path d="M261.56975,14.32625 C268.16975,14.32625 272.12975,17.18075 274.25825,20.10125 L268.74725,25.28225 C267.244813,23.0299037 264.679437,21.7206556 261.974,21.8255 C256.859,21.8255 253.27025,25.54625 253.27025,31.1315 C253.27025,36.71675 256.859,40.49525 261.974,40.49525 C264.665865,40.5399964 267.204109,39.2445952 268.74725,37.0385 L274.25825,42.1535 C272.12975,45.14 268.145,48.00275 261.56975,48.00275 C251.66975,48.00275 244.5665,41.0315 244.5665,31.1315 C244.5665,21.2315 251.66975,14.32625 261.56975,14.32625 Z" id="Shape"></path>
          <polygon id="Shape" points="291.9215 34.85225 288.06875 38.97725 288.06875 47.22725 279.629 47.22725 279.629 2.9 288.06875 2.9 288.06875 29.40725 300.22925 15.1265 310.55 15.1265 297.90275 29.67125 310.98725 47.21075 300.42725 47.21075"></polygon>
        </g>
      </g>
    </g>
  </g>
</svg>
